<?xml version="1.0" encoding="utf-8"?>
<!-- Generator: Adobe Illustrator 19.2.1, SVG Export Plug-In . SVG Version: 6.00 Build 0)  -->
<svg version="1.1" id="layer" xmlns="http://www.w3.org/2000/svg" xmlns:xlink="http://www.w3.org/1999/xlink" x="0px" y="0px"
	 viewBox="0 0 652 652" style="enable-background:new 0 0 652 652;" xml:space="preserve">
<style type="text/css">
	.st0{clip-path:url(#SVGID_2_);fill:url(#SVGID_3_);}
	.st1{fill:#5F6369;}
	.st2{fill:#FFFFFF;}
</style>
<g>
	<defs>
		<rect id="SVGID_1_" x="433.7" y="234.3" width="180.1" height="180.1"/>
	</defs>
	<clipPath id="SVGID_2_">
		<use xlink:href="#SVGID_1_"  style="overflow:visible;"/>
	</clipPath>
	
		<radialGradient id="SVGID_3_" cx="37.3379" cy="717.3547" r="3.4809" gradientTransform="matrix(74.9488 -65.7901 -65.7901 -74.9488 44749.3477 56684.6563)" gradientUnits="userSpaceOnUse">
		<stop  offset="0" style="stop-color:#7FBE3F"/>
		<stop  offset="0.29" style="stop-color:#7FBE3F"/>
		<stop  offset="0.44" style="stop-color:#5FB744"/>
		<stop  offset="0.4713" style="stop-color:#4FB245"/>
		<stop  offset="0.5665" style="stop-color:#24A346"/>
		<stop  offset="0.641" style="stop-color:#0A9A48"/>
		<stop  offset="0.685" style="stop-color:#009748"/>
		<stop  offset="0.6882" style="stop-color:#008E59"/>
		<stop  offset="0.705" style="stop-color:#0061AF"/>
		<stop  offset="0.9" style="stop-color:#00A5E6"/>
		<stop  offset="1" style="stop-color:#00ACEC"/>
	</radialGradient>
	<polygon class="st0" points="344.4,312.7 535.4,145 703.1,336 512.1,503.7 	"/>
</g>
<g>
	<path class="st1" d="M368.2,353.7c-17.1,0-31,13.9-31,31s13.9,31,31,31c17.1,0,30.8-13.9,30.8-31S385.2,353.7,368.2,353.7
		 M368.2,401.5c-9.4,0-16.9-7.7-16.9-16.9c0-9.2,7.5-16.7,16.9-16.7c9.2,0,16.7,7.5,16.7,16.7C384.9,393.9,377.4,401.5,368.2,401.5"
		/>
	<path class="st1" d="M254.7,353c-6.8,0-13.8,1.4-19.3,3.7c-4.5-2.6-8.9-3.7-15.1-3.7c-7.8,0-15.8,1-24.5,4l-1.6,0.5v56.9h15.5
		v-46.7c3.1-1,5.6-1.4,8.7-1.4c7.7,0,9.9,2.4,9.9,10.4v37.6h15.7v-38.6c0-3.5-0.2-5.7-0.7-7.8c3.1-1,5.6-1.6,8.4-1.6
		c7.3,0,10.6,3.3,10.6,10.4v37.6h15.5v-38.8c0-7.7-1.2-12.2-4.7-16C269.2,355.4,262.7,353,254.7,353"/>
	<path class="st1" d="M316.8,402.1c-10.3,0-16.2-6.4-16.2-17.6c0-11.5,6-18,16.4-18c2.2,0,4,0.2,5.7,0.7c0,0,3.2,0.9,6,3.1l6.6-11.2
		c-3.6-3-7.8-4.3-9.2-4.6c-4-1.2-9.9-1.4-9.9-1.4c-18.6,0-31.1,12.9-31.1,32.1c0,18.5,11.9,30.4,30.2,30.4c0,0,12.3,0.5,20.6-7.1
		l-7.7-9.9C323.9,401.3,321,402.1,316.8,402.1"/>
	<path class="st1" d="M114.8,353.5c-22.1,0-32.4,9.7-32.4,30.5v30.5h15.8v-29.2v-1.4c0-10.4,5.9-16.9,15.1-16.9
		c3.8,0,6.8,0.7,8.9,1.2l3.7-13.8C119.9,353.5,114.8,353.5,114.8,353.5"/>
</g>
<g>
	<path class="st1" d="M185.1,382.2v32.2h-21.2c-14.6,0-21.1-1-28.7-6.1c-6.6-4.5-10.3-13.1-10.3-24.2c0-15.3,10.1-30.8,32.4-30.8
		C175.3,353.3,185.1,363.4,185.1,382.2 M169.6,384c0-11.7-4.5-17.4-13.6-17.4c-9.2,0-15.1,6.8-15.1,17.1c0,12.4,5.9,17.8,19.1,17.8
		h9.6V384z"/>
	<path class="st1" d="M73.9,382.2v32.2H52.8c-14.6,0-21.1-1-28.7-6.1c-6.6-4.5-10.3-13.1-10.3-24.2c0-15.3,10.1-30.8,32.4-30.8
		C64.3,353.3,73.9,363.4,73.9,382.2 M57.8,384c0-11.8-4.2-17.4-13.4-17.4c-9.2,0-15.1,6.8-15.1,17.1c0,12.4,5.9,17.8,19.1,17.8h9.4
		V384z"/>
</g>
<g>
	<path class="st2" d="M533.1,309.9c2.1,1.1,3.5,3.2,3.3,5c-0.3,1.8-2.3,2.4-4.5,1.3c-2.2-1.1-3.6-3.3-3.3-5.1
		C529,309.4,530.9,308.9,533.1,309.9"/>
	<path class="st2" d="M539.4,275.2c1.7,0.9,3,2.5,2.8,3.6c-0.2,1.1-1.7,1.3-3.5,0.4c-1.8-0.9-3-2.5-2.8-3.6
		C536.1,274.4,537.6,274.3,539.4,275.2"/>
	<path class="st2" d="M540,271.8c1.5,0.8,2.5,2.1,2.4,2.9c-0.2,0.9-1.4,1-2.9,0.2c-1.5-0.8-2.5-2.1-2.4-3
		C537.3,271.1,538.5,271,540,271.8"/>
	<path class="st2" d="M540.5,268.4c1.3,0.7,2.3,1.9,2.2,2.7c-0.1,0.8-1.3,0.9-2.7,0.1c-1.4-0.7-2.3-1.9-2.2-2.7
		C538,267.7,539.2,267.6,540.5,268.4"/>
	<path class="st2" d="M541,265c1.3,0.7,2.1,1.7,2.1,2.5c-0.1,0.7-1.2,0.7-2.5,0.1c-1.3-0.7-2.2-1.8-2.1-2.5
		C538.7,264.4,539.8,264.4,541,265"/>
	<path class="st2" d="M541.6,261.9c1.2,0.6,2,1.6,1.9,2.2c-0.1,0.6-1.1,0.6-2.3,0c-1.2-0.6-2-1.6-1.9-2.3
		C539.4,261.3,540.4,261.3,541.6,261.9"/>
	<path class="st2" d="M542,259.2c1.1,0.6,1.8,1.5,1.8,2c-0.1,0.6-1,0.6-2.1,0c-1.1-0.6-1.9-1.5-1.8-2.1
		C540,258.5,540.9,258.6,542,259.2"/>
	<path class="st2" d="M542.4,256.5c1,0.5,1.7,1.3,1.6,1.9c-0.1,0.6-0.9,0.5-1.9-0.1c-1-0.6-1.7-1.3-1.6-1.9
		C540.6,255.8,541.4,255.9,542.4,256.5"/>
	<path class="st2" d="M542.9,253.7c0.8,0.5,1.5,1.1,1.4,1.6c-0.1,0.5-0.8,0.4-1.7-0.1c-0.9-0.5-1.5-1.1-1.4-1.6
		C541.3,253.1,542,253.3,542.9,253.7"/>
	<path class="st2" d="M543.3,251.2c0.8,0.4,1.3,1,1.3,1.4c-0.1,0.5-0.7,0.3-1.5-0.1c-0.8-0.5-1.4-1-1.3-1.5
		C541.8,250.6,542.5,250.7,543.3,251.2"/>
	<path class="st2" d="M543.6,248.6c0.7,0.4,1.2,0.9,1.1,1.2c-0.1,0.4-0.6,0.3-1.3-0.1c-0.7-0.4-1.2-0.9-1.1-1.2
		C542.4,248.1,543,248.3,543.6,248.6"/>
	<path class="st2" d="M544,246.3c0.6,0.3,1,0.7,1,1.1c-0.1,0.3-0.5,0.2-1.1-0.1c-0.6-0.3-1-0.7-1-1.1
		C543,245.8,543.4,245.9,544,246.3"/>
	<path class="st2" d="M530.8,322c-1.8-0.9-3-2.8-2.7-4.4c0.3-1.5,2-2,3.8-1.1c1.8,0.9,2.9,2.7,2.7,4.3
		C534.3,322.3,532.7,322.9,530.8,322"/>
	<path class="st2" d="M529.4,329.4c-1.8-0.9-2.9-2.8-2.6-4.4c0.4-1.6,1.9-2.1,3.7-1.3c1.7,0.9,2.9,2.7,2.6,4.3
		C532.8,329.6,531.2,330.2,529.4,329.4"/>
	<path class="st2" d="M527.9,337.1c-1.7-0.9-2.8-2.7-2.5-4.4c0.4-1.6,1.9-2.2,3.6-1.4c1.7,0.8,2.8,2.7,2.5,4.3
		C531.2,337.3,529.7,337.9,527.9,337.1"/>
	<path class="st2" d="M526.2,345.6c-1.7-0.8-2.7-2.7-2.4-4.4c0.4-1.6,1.9-2.2,3.6-1.5c1.7,0.8,2.7,2.6,2.4,4.3
		C529.5,345.6,527.9,346.3,526.2,345.6"/>
	<path class="st2" d="M524.5,354c-1.5-0.7-2.4-2.4-2.1-3.9c0.3-1.5,1.7-2.1,3.1-1.4c1.4,0.7,2.3,2.3,2.1,3.8
		C527.4,354,526,354.7,524.5,354"/>
	<path class="st2" d="M522.4,364.3c-1.4-0.7-2.3-2.3-2-3.9c0.4-1.5,1.7-2.2,3.1-1.6c1.4,0.6,2.2,2.3,2,3.8
		C525.2,364.2,523.9,364.9,522.4,364.3"/>
	<path class="st2" d="M520.1,375.3c-1.3-0.6-2-2.1-1.7-3.6c0.3-1.4,1.5-2.1,2.8-1.6c1.2,0.6,2,2.1,1.7,3.5
		C522.6,375.1,521.4,375.8,520.1,375.3"/>
	<path class="st2" d="M517.8,386.4c-1.1-0.5-1.7-1.8-1.4-3.1c0.3-1.3,1.4-2,2.4-1.5c1.1,0.5,1.7,1.8,1.4,3.1
		C519.9,386.1,518.9,386.8,517.8,386.4"/>
	<path class="st2" d="M540.6,314.1c1.7,0.9,2.8,2.6,2.7,4c-0.2,1.4-1.7,1.9-3.4,1.1c-1.7-0.9-2.9-2.7-2.7-4.1
		C537.4,313.6,538.9,313.2,540.6,314.1"/>
	<path class="st2" d="M548.1,317.2c2.1,1.1,3.5,3.3,3.4,5.1c-0.2,1.8-2,2.4-4.1,1.4c-2.1-1.1-3.6-3.4-3.4-5.2
		C544.2,316.7,546,316.1,548.1,317.2"/>
	<path class="st2" d="M599.8,314.4c-0.8-0.5-1.4-0.4-1.3,0.4c0.1,0.8,0.9,1.8,1.7,2.4c0.9,0.5,1.4,0.4,1.3-0.4
		C601.4,316,600.7,315,599.8,314.4"/>
	<path class="st2" d="M593.8,310.3c-1.1-0.7-1.9-0.5-1.8,0.5c0.1,1,1.1,2.3,2.2,3c1.1,0.7,1.9,0.5,1.8-0.5
		C595.9,312.3,594.9,311,593.8,310.3"/>
	<path class="st2" d="M577,366.5c-1.5-0.9-2.6-0.3-2.6,1.5c0,1.8,1.1,3.8,2.6,4.8c1.5,0.9,2.6,0.3,2.6-1.5
		C579.5,369.5,578.4,367.4,577,366.5"/>
	<path class="st2" d="M569.8,352.3c-1.7-1-3-0.3-3.1,1.5c0,1.9,1.2,4.1,2.9,5.1c1.7,1,3,0.3,3.1-1.6
		C572.7,355.4,571.5,353.3,569.8,352.3"/>
	<path class="st2" d="M562.3,340c-1.7-0.9-3-0.3-3.1,1.3c-0.1,1.7,1.2,3.7,2.8,4.7c1.7,0.9,3,0.3,3.1-1.4
		C565.1,342.9,563.9,340.9,562.3,340"/>
	<path class="st2" d="M557.6,289.5c-1.5-0.8-2.7-0.6-2.8,0.4c0,1.1,1.1,2.5,2.6,3.4c1.5,0.8,2.7,0.6,2.8-0.5
		C560.2,291.8,559.1,290.4,557.6,289.5"/>
	<path class="st2" d="M588.4,311.9c-1.2-0.7-2-0.5-1.9,0.5c0.1,1,1.1,2.4,2.3,3.1c1.2,0.7,2,0.5,1.9-0.6
		C590.6,313.9,589.6,312.6,588.4,311.9"/>
	<path class="st2" d="M582.3,308.2c-1.2-0.7-2.2-0.5-2.1,0.5c0.1,1,1.1,2.4,2.4,3.2c1.3,0.7,2.2,0.5,2.1-0.6
		C584.6,310.3,583.6,309,582.3,308.2"/>
	<path class="st2" d="M570.2,306.2c-1.5-0.8-2.6-0.5-2.6,0.6c0,1.2,1.2,2.8,2.6,3.6c1.5,0.8,2.6,0.5,2.6-0.7
		C572.8,308.5,571.7,307,570.2,306.2"/>
	<path class="st2" d="M576.3,304.5c-1.4-0.8-2.4-0.5-2.4,0.6c0,1.1,1.2,2.6,2.6,3.5c1.4,0.8,2.4,0.5,2.4-0.6
		C578.8,306.8,577.7,305.3,576.3,304.5"/>
	<path class="st2" d="M569.9,300.8c-1.6-0.8-2.8-0.6-2.8,0.6c0,1.2,1.3,2.9,2.8,3.8c1.6,0.9,2.8,0.6,2.8-0.7
		C572.7,303.3,571.5,301.7,569.9,300.8"/>
	<path class="st2" d="M563.7,302.4c-1.6-0.9-2.9-0.6-3,0.7c0,1.3,1.2,3,2.9,3.9c1.7,0.9,2.9,0.6,3-0.7
		C566.6,305,565.4,303.3,563.7,302.4"/>
	<path class="st2" d="M555.1,328.2c-1.7-0.9-3.1-0.4-3.3,1.2c-0.1,1.6,1.1,3.6,2.9,4.5c1.8,0.9,3.2,0.3,3.3-1.3
		C558,331,556.8,329.1,555.1,328.2"/>
	<path class="st2" d="M555.6,321.4c-1.8-1-3.4-0.5-3.5,1.2c-0.1,1.7,1.2,3.7,3.1,4.8c1.9,1,3.4,0.4,3.5-1.3
		C558.7,324.4,557.4,322.4,555.6,321.4"/>
	<path class="st2" d="M556,315c-2-1-3.6-0.6-3.8,1.1c-0.1,1.7,1.3,3.9,3.4,5c2,1.1,3.7,0.5,3.8-1.2C559.5,318.2,558,316.1,556,315"
		/>
	<path class="st2" d="M556.4,309.1c-1.9-1-3.5-0.6-3.7,1c-0.1,1.6,1.3,3.7,3.3,4.8c2,1,3.6,0.6,3.7-1.1
		C559.8,312.1,558.4,310.1,556.4,309.1"/>
	<path class="st2" d="M556.7,303.9c-1.7-0.9-3.1-0.6-3.2,0.8c-0.1,1.4,1.2,3.1,2.9,4.1c1.7,0.9,3.1,0.5,3.2-0.8
		C559.7,306.5,558.4,304.8,556.7,303.9"/>
	<path class="st2" d="M557.1,298.6c-1.8-1-3.3-0.7-3.5,0.7c-0.1,1.4,1.3,3.3,3.2,4.3c1.9,1,3.4,0.6,3.4-0.8
		C560.3,301.4,558.9,299.6,557.1,298.6"/>
	<path class="st2" d="M557.4,293.8c-1.8-0.9-3.2-0.7-3.4,0.6c-0.1,1.3,1.3,3.1,3.1,4.1c1.8,1,3.3,0.7,3.3-0.7
		C560.5,296.5,559.2,294.8,557.4,293.8"/>
	<path class="st2" d="M545.8,279.1c-1.3-0.6-2.3-0.5-2.4,0.2c-0.1,0.8,0.8,2,2.1,2.6c1.3,0.7,2.3,0.5,2.4-0.3
		C547.9,280.9,547,279.8,545.8,279.1"/>
	<path class="st2" d="M546,275.4c-1.2-0.6-2.1-0.5-2.2,0.2c-0.1,0.7,0.7,1.7,1.9,2.4c1.2,0.6,2.1,0.5,2.2-0.2
		C548,277,547.2,276,546,275.4"/>
	<path class="st2" d="M546.2,271.8c-1-0.5-1.8-0.5-1.9,0.1c-0.1,0.6,0.7,1.5,1.7,2c1,0.5,1.8,0.5,1.9-0.1
		C547.9,273.3,547.2,272.4,546.2,271.8"/>
	<path class="st2" d="M546.4,268.4c-0.9-0.5-1.6-0.5-1.7,0.1c-0.1,0.6,0.6,1.3,1.5,1.8c0.9,0.5,1.6,0.5,1.7-0.1
		C547.9,269.6,547.3,268.9,546.4,268.4"/>
	<path class="st2" d="M546.6,265.2c-0.8-0.4-1.5-0.5-1.6,0c-0.1,0.5,0.6,1.2,1.4,1.6c0.8,0.4,1.5,0.5,1.6,0
		C548,266.3,547.4,265.7,546.6,265.2"/>
	<path class="st2" d="M546.7,262c-0.7-0.4-1.3-0.5-1.4,0c0,0.5,0.5,1,1.2,1.4c0.8,0.4,1.4,0.5,1.4,0C548,263,547.4,262.5,546.7,262"
		/>
	<path class="st2" d="M546.8,259.2c-0.7-0.4-1.2-0.5-1.3,0c0,0.4,0.5,0.9,1.2,1.3c0.7,0.4,1.2,0.5,1.3,0
		C548,260.1,547.5,259.6,546.8,259.2"/>
	<path class="st2" d="M547,256.3c-0.6-0.3-1.1-0.4-1.1-0.1c0,0.4,0.4,0.8,1,1.1c0.6,0.3,1.1,0.4,1.1,0.1
		C548,257.1,547.6,256.6,547,256.3"/>
	<path class="st2" d="M539,325.2c1.3,0.6,2.5,0.2,2.7-0.9c0.1-1.2-0.7-2.5-2.1-3.2c-1.3-0.6-2.5-0.3-2.7,0.9
		C536.8,323.1,537.7,324.5,539,325.2"/>
	<path class="st2" d="M537.9,332.6c1.3,0.6,2.4,0.2,2.6-1c0.1-1.2-0.7-2.5-1.9-3.2c-1.3-0.6-2.4-0.2-2.6,0.9
		C535.8,330.5,536.6,331.9,537.9,332.6"/>
	<path class="st2" d="M536.1,340.2c1.3,0.6,2.4,0.1,2.6-1.1c0.2-1.2-0.7-2.6-1.9-3.2c-1.2-0.6-2.3-0.1-2.6,1
		C534,338.2,534.8,339.6,536.1,340.2"/>
	<path class="st2" d="M534.5,348.5c1.2,0.5,2.2,0.1,2.4-1.1c0.2-1.2-0.6-2.5-1.7-3.1c-1.2-0.5-2.2-0.1-2.4,1.1
		C532.5,346.6,533.3,347.9,534.5,348.5"/>
	<path class="st2" d="M532.5,356.8c1.1,0.5,2.1,0,2.3-1.1c0.2-1.1-0.5-2.4-1.6-2.9c-1.1-0.5-2.1,0-2.3,1.1
		C530.7,355,531.4,356.2,532.5,356.8"/>
	<path class="st2" d="M530.2,366.6c1,0.5,2-0.1,2.2-1.2c0.2-1.1-0.5-2.4-1.5-2.8c-1-0.5-1.9,0-2.2,1.1
		C528.6,364.9,529.2,366.1,530.2,366.6"/>
	<path class="st2" d="M563.6,297.5c-1.5-0.8-2.7-0.6-2.8,0.5c0,1.1,1.1,2.7,2.7,3.5c1.5,0.8,2.7,0.6,2.8-0.6
		C566.3,299.8,565.1,298.3,563.6,297.5"/>
	<path class="st2" d="M563.3,307.9c-1.4-0.7-2.4-0.5-2.5,0.6c0,1.1,1,2.6,2.4,3.3c1.4,0.7,2.5,0.4,2.5-0.7
		C565.7,310,564.6,308.6,563.3,307.9"/>
	<path class="st2" d="M563.2,313.2c-1.5-0.8-2.8-0.5-2.9,0.8c0,1.3,1.1,3,2.7,3.9c1.6,0.8,2.8,0.5,2.9-0.9
		C565.9,315.7,564.7,314.1,563.2,313.2"/>
	<path class="st2" d="M562.4,332.4c-1.5-0.8-2.7-0.3-2.8,1.1c-0.1,1.5,1.1,3.3,2.6,4.1c1.5,0.8,2.8,0.3,2.8-1.2
		C565,335,563.9,333.3,562.4,332.4"/>
	<path class="st2" d="M587.9,306.6c-1.3-0.7-2.2-0.5-2.1,0.5c0.1,1.1,1.2,2.5,2.5,3.3c1.3,0.7,2.2,0.5,2.1-0.6
		C590.2,308.8,589.2,307.4,587.9,306.6"/>
	<path class="st2" d="M569.3,361.5c-1.4-0.8-2.5-0.2-2.6,1.4c0,1.6,1,3.5,2.4,4.4c1.4,0.8,2.5,0.2,2.6-1.4
		C571.7,364.2,570.7,362.3,569.3,361.5"/>
	<path class="st2" d="M577.1,376c-1.3-0.8-2.4-0.2-2.4,1.5c0,1.7,1,3.7,2.4,4.6c1.4,0.9,2.4,0.2,2.4-1.5
		C579.4,378.9,578.4,376.9,577.1,376"/>
	<path class="st2" d="M561.6,348c-1.5-0.8-2.8-0.3-2.9,1.4c-0.1,1.6,1.1,3.6,2.6,4.5c1.6,0.8,2.8,0.2,2.9-1.4
		C564.3,350.8,563.2,348.8,561.6,348"/>
	<path class="st2" d="M554.4,336c-1.5-0.8-2.8-0.3-3,1.2c-0.1,1.5,1,3.3,2.5,4.1c1.6,0.8,2.8,0.3,3-1.3
		C557,338.6,556,336.8,554.4,336"/>
	<path class="st2" d="M547.4,324.4c-1.7-0.8-3.1-0.4-3.3,1.1c-0.2,1.5,1,3.4,2.7,4.3c1.7,0.8,3.1,0.3,3.3-1.2
		C550.3,327,549.1,325.2,547.4,324.4"/>
	<path class="st2" d="M562.7,325.9c-1.4-0.7-2.6-0.4-2.6,0.9c-0.1,1.3,1,3,2.4,3.8c1.4,0.8,2.6,0.3,2.6-1
		C565.1,328.3,564.1,326.7,562.7,325.9"/>
	<path class="st2" d="M557.8,285.4c-1.3-0.7-2.4-0.6-2.5,0.3c0,0.9,1,2.2,2.3,2.9c1.3,0.7,2.4,0.6,2.4-0.3
		C560.1,287.4,559.1,286.2,557.8,285.4"/>
	<path class="st2" d="M582,303.5c-1.1-0.6-1.8-0.4-1.8,0.4c0.1,0.8,0.9,2,2,2.6c1.1,0.6,1.8,0.4,1.8-0.4
		C583.9,305.3,583,304.1,582,303.5"/>
	<path class="st2" d="M570.3,317.6c-1.2-0.7-2.1-0.4-2.1,0.7c0,1.1,0.9,2.4,2.1,3.1c1.2,0.7,2.1,0.4,2.1-0.7
		C572.3,319.6,571.4,318.3,570.3,317.6"/>
	<path class="st2" d="M569.7,344.4c-1.5-0.8-2.6-0.3-2.7,1.2c0,1.6,1.1,3.4,2.6,4.3c1.5,0.8,2.6,0.3,2.7-1.3
		C572.2,347.1,571.1,345.2,569.7,344.4"/>
	<path class="st2" d="M562.9,319.7c-1.4-0.7-2.5-0.4-2.6,0.8c0,1.2,1,2.8,2.4,3.6c1.4,0.8,2.5,0.4,2.6-0.9
		C565.3,321.9,564.3,320.4,562.9,319.7"/>
	<path class="st2" d="M577.1,327.6c-1.3-0.8-2.3-0.4-2.3,0.9c0,1.3,1.1,2.9,2.4,3.7c1.4,0.8,2.4,0.4,2.3-0.9
		C579.5,330,578.4,328.4,577.1,327.6"/>
	<path class="st2" d="M582.9,392.4c-1.1-0.8-1.9-0.2-1.9,1.3c0,1.5,0.9,3.4,2,4.2c1.1,0.8,1.9,0.2,1.9-1.3
		C584.8,395,583.9,393.2,582.9,392.4"/>
	<path class="st2" d="M576.6,309.9c-1.2-0.7-2.2-0.4-2.2,0.6c0,1,1,2.4,2.3,3.1c1.3,0.7,2.2,0.4,2.1-0.6
		C578.8,312,577.8,310.6,576.6,309.9"/>
	<path class="st2" d="M551.6,282.3c-1.2-0.6-2.2-0.5-2.3,0.3c-0.1,0.8,0.8,1.9,2,2.6c1.2,0.6,2.2,0.5,2.3-0.3
		C553.7,284,552.8,282.9,551.6,282.3"/>
	<path class="st2" d="M563.8,284.8c-1.2-0.6-2-0.5-2.1,0.2c0,0.8,0.9,1.9,2,2.5c1.2,0.6,2.1,0.5,2.1-0.3
		C565.8,286.5,565,285.5,563.8,284.8"/>
	<path class="st2" d="M576.2,300.3c-1-0.5-1.7-0.4-1.7,0.3c0,0.7,0.8,1.7,1.8,2.3c1,0.5,1.7,0.4,1.7-0.4
		C577.9,301.8,577.1,300.8,576.2,300.3"/>
	<path class="st2" d="M570,323.8c-1.2-0.7-2.2-0.3-2.2,0.8c0,1.1,0.9,2.5,2.2,3.3c1.2,0.7,2.2,0.3,2.2-0.8
		C572.1,325.9,571.2,324.5,570,323.8"/>
	<path class="st2" d="M576.7,321.5c-1.1-0.6-1.9-0.3-1.9,0.6c0,1,0.9,2.2,1.9,2.8c1.1,0.6,1.9,0.3,1.8-0.6
		C578.6,323.3,577.8,322.1,576.7,321.5"/>
	<path class="st2" d="M583.7,331.8c-1.2-0.7-2-0.4-2,0.8c0.1,1.2,1,2.7,2.2,3.4c1.2,0.7,2,0.4,2-0.8
		C585.8,334,584.8,332.5,583.7,331.8"/>
	<path class="st2" d="M594.2,315.8c-0.9-0.5-1.5-0.4-1.4,0.4c0.1,0.8,0.9,1.9,1.7,2.4c0.9,0.5,1.5,0.4,1.4-0.5
		C595.9,317.4,595.1,316.4,594.2,315.8"/>
	<path class="st2" d="M563.8,281.2c-1-0.5-1.8-0.5-1.8,0.2c0,0.7,0.8,1.6,1.8,2.2c1,0.5,1.8,0.5,1.8-0.2
		C565.6,282.7,564.8,281.8,563.8,281.2"/>
	<path class="st2" d="M563.8,289c-1.1-0.6-1.9-0.4-1.9,0.3c0,0.7,0.8,1.8,1.9,2.4c1.1,0.6,1.9,0.4,1.9-0.3
		C565.6,290.6,564.8,289.5,563.8,289"/>
	<path class="st2" d="M584,382.4c-1.2-0.8-2.2-0.2-2.2,1.4c0,1.6,1,3.6,2.2,4.5c1.2,0.9,2.1,0.3,2.1-1.4
		C586.2,385.3,585.2,383.3,584,382.4"/>
	<path class="st2" d="M558,281.8c-1.1-0.5-1.9-0.5-1.9,0.2c0,0.7,0.8,1.7,1.8,2.2c1.1,0.6,1.9,0.5,1.9-0.2
		C559.8,283.4,559,282.4,558,281.8"/>
	<path class="st2" d="M569.9,312c-1-0.6-1.8-0.4-1.9,0.5c0,0.9,0.8,2,1.9,2.6c1.1,0.6,1.9,0.3,1.9-0.5
		C571.8,313.7,571,312.5,569.9,312"/>
	<path class="st2" d="M569.9,297c-0.9-0.5-1.5-0.3-1.5,0.3c0,0.7,0.7,1.5,1.6,2c0.9,0.5,1.5,0.4,1.5-0.3
		C571.4,298.3,570.7,297.5,569.9,297"/>
	<path class="st2" d="M569.8,337.4c-1-0.6-1.9-0.3-1.9,0.8c0,1,0.8,2.3,1.8,2.9c1.1,0.6,1.9,0.2,1.9-0.8
		C571.6,339.2,570.8,338,569.8,337.4"/>
	<path class="st2" d="M577.2,357.8c-1.2-0.7-2.1-0.3-2.1,1.1c0,1.4,1,3,2.2,3.8c1.2,0.7,2.1,0.2,2.1-1.1
		C579.3,360.2,578.4,358.5,577.2,357.8"/>
	<path class="st2" d="M563.7,293.7c-0.8-0.4-1.4-0.3-1.4,0.2c0,0.6,0.6,1.4,1.4,1.8c0.8,0.4,1.4,0.3,1.4-0.3
		C565.1,294.9,564.5,294.2,563.7,293.7"/>
	<path class="st2" d="M576.6,385.8c-1-0.6-1.7-0.1-1.7,1.1c0,1.3,0.7,2.8,1.7,3.4c1,0.6,1.7,0.1,1.7-1.2
		C578.2,387.9,577.5,386.5,576.6,385.8"/>
	<path class="st2" d="M582.7,313.9c-1-0.6-1.7-0.4-1.7,0.5c0.1,0.9,0.9,2,1.9,2.6c1,0.6,1.7,0.4,1.7-0.5
		C584.5,315.6,583.7,314.5,582.7,313.9"/>
	<path class="st2" d="M569.8,284.6c-0.9-0.5-1.6-0.4-1.6,0.2c0,0.6,0.7,1.5,1.7,2c0.9,0.5,1.6,0.4,1.6-0.2
		C571.4,286,570.7,285.1,569.8,284.6"/>
	<path class="st2" d="M605.7,318.4c-0.7-0.5-1.2-0.3-1.1,0.4c0.1,0.7,0.8,1.6,1.5,2.1c0.7,0.5,1.2,0.3,1.1-0.4
		C607.1,319.8,606.4,318.9,605.7,318.4"/>
	<path class="st2" d="M590.3,336.2c-1-0.7-1.8-0.3-1.7,0.7c0.1,1.1,0.9,2.5,2,3.2c1.1,0.7,1.8,0.4,1.7-0.8
		C592.2,338.2,591.3,336.8,590.3,336.2"/>
	<path class="st2" d="M587.1,403c-0.9-0.7-1.5-0.2-1.5,1.2c0,1.4,0.7,3.1,1.6,3.9c0.9,0.8,1.5,0.2,1.5-1.2
		C588.6,405.4,588,403.7,587.1,403"/>
	<path class="st2" d="M569,371.2c-1.1-0.6-1.9-0.1-2,1.1c0,1.3,0.8,2.7,1.8,3.4c1.1,0.6,1.9,0.1,1.9-1.2
		C570.8,373.3,570,371.8,569,371.2"/>
	<path class="st2" d="M583.4,325.9c-0.7-0.4-1.3-0.2-1.3,0.5c0,0.7,0.6,1.6,1.4,2.1c0.8,0.5,1.3,0.2,1.3-0.5
		C584.7,327.2,584.1,326.3,583.4,325.9"/>
	<path class="st2" d="M569.5,280.9c-0.8-0.4-1.4-0.4-1.3,0.1c0,0.6,0.6,1.2,1.4,1.7c0.8,0.4,1.4,0.4,1.4-0.1
		C570.8,282,570.2,281.3,569.5,280.9"/>
	<path class="st2" d="M575,284.2c-0.6-0.3-1.1-0.3-1.1,0.1c0,0.5,0.5,1,1.2,1.4c0.6,0.3,1.1,0.3,1.1-0.1
		C576.1,285.1,575.6,284.6,575,284.2"/>
	<path class="st2" d="M561.2,357.9c-0.9-0.5-1.7-0.1-1.8,0.9c0,1,0.6,2.2,1.6,2.8c1,0.5,1.7,0.1,1.8-0.9
		C562.9,359.6,562.2,358.4,561.2,357.9"/>
	<path class="st2" d="M553.5,344.9c-0.9-0.5-1.7-0.1-1.8,0.8c-0.1,0.9,0.6,2.1,1.5,2.6c0.9,0.5,1.7,0.1,1.8-0.8
		C555.1,346.6,554.4,345.4,553.5,344.9"/>
	<path class="st2" d="M546.3,333c-0.9-0.5-1.7-0.2-1.8,0.7c-0.1,0.9,0.5,1.9,1.5,2.4c0.9,0.5,1.7,0.1,1.8-0.7
		C547.9,334.5,547.2,333.4,546.3,333"/>
	<path class="st2" d="M574.6,280.7c-0.7-0.4-1.2-0.4-1.1,0.1c0,0.5,0.6,1.1,1.3,1.4c0.7,0.4,1.2,0.4,1.1-0.1
		C575.9,281.7,575.3,281.1,574.6,280.7"/>
	<path class="st2" d="M579,280.8c-0.6-0.3-1-0.3-1,0.1c0,0.4,0.5,0.9,1.1,1.2c0.6,0.3,1,0.3,1-0.1C580,281.6,579.6,281.1,579,280.8"
		/>
	<path class="st2" d="M596.9,341.2c-0.7-0.4-1.1-0.2-1.1,0.5c0.1,0.7,0.6,1.7,1.3,2.1c0.7,0.4,1.1,0.2,1.1-0.5
		C598.1,342.6,597.5,341.6,596.9,341.2"/>
	<path class="st2" d="M590.8,342.9c-0.8-0.5-1.4-0.3-1.4,0.6c0.1,0.9,0.8,2.1,1.6,2.6c0.8,0.6,1.4,0.3,1.4-0.7
		C592.3,344.6,591.6,343.4,590.8,342.9"/>
	<path class="st2" d="M584,338.6c-0.8-0.5-1.3-0.2-1.3,0.6c0,0.8,0.7,1.8,1.4,2.3c0.8,0.5,1.4,0.2,1.3-0.6
		C585.4,340.1,584.8,339.1,584,338.6"/>
	<path class="st2" d="M577.1,334.5c-0.7-0.4-1.3-0.2-1.3,0.5c0,0.7,0.6,1.6,1.3,2.1c0.7,0.4,1.3,0.2,1.3-0.5
		C578.3,335.8,577.8,334.9,577.1,334.5"/>
	<path class="st2" d="M569.9,330.4c-0.7-0.4-1.3-0.2-1.3,0.5c0,0.7,0.6,1.6,1.3,2c0.7,0.4,1.3,0.2,1.3-0.5
		C571.2,331.7,570.7,330.8,569.9,330.4"/>
	<path class="st2" d="M597.2,347.5c-0.7-0.5-1.1-0.2-1.1,0.5c0.1,0.8,0.6,1.8,1.3,2.2c0.7,0.5,1.1,0.2,1.1-0.5
		C598.5,349,597.9,348,597.2,347.5"/>
	<path class="st2" d="M604,352.6c-0.6-0.4-1-0.2-0.9,0.5c0.1,0.7,0.6,1.7,1.2,2.1c0.6,0.5,1,0.2,0.9-0.5
		C605,354,604.5,353.1,604,352.6"/>
	<path class="st2" d="M569.7,288.5c-0.7-0.4-1.3-0.4-1.3,0.2c0,0.6,0.6,1.2,1.4,1.6c0.7,0.4,1.3,0.4,1.3-0.2
		C571,289.6,570.5,288.9,569.7,288.5"/>
	<path class="st2" d="M525.2,306.4c-1.7-0.8-3.4-0.4-3.7,0.9c-0.3,1.4,0.8,3.2,2.6,4c1.8,0.8,3.4,0.4,3.7-1
		C528,308.9,526.9,307.2,525.2,306.4"/>
	<path class="st2" d="M517.6,302.1c-2.2-1-4.3-0.5-4.8,1.1c-0.5,1.7,0.9,3.9,3.2,5c2.3,1,4.4,0.5,4.8-1.3
		C521.2,305.3,519.8,303.2,517.6,302.1"/>
	<path class="st2" d="M466.8,248.4c1.2,0.4,1.8,1.1,1.4,1.7c-0.4,0.6-1.7,0.7-2.9,0.3c-1.2-0.4-1.8-1.1-1.4-1.7
		C464.3,248.2,465.6,248,466.8,248.4"/>
	<path class="st2" d="M475.1,251c1.4,0.5,2.1,1.5,1.7,2.2c-0.5,0.7-2,0.8-3.5,0.3c-1.5-0.5-2.2-1.5-1.7-2.2
		C472.2,250.6,473.7,250.5,475.1,251"/>
	<path class="st2" d="M472,317.4c1.3,0.5,2,1.8,1.5,2.9c-0.5,1.1-2,1.6-3.4,1c-1.4-0.5-2-1.8-1.5-2.9
		C469.2,317.3,470.6,316.9,472,317.4"/>
	<path class="st2" d="M484,311.4c1.8,0.8,2.8,2.4,2.2,3.9c-0.6,1.5-2.5,2-4.4,1.3c-1.9-0.8-2.8-2.5-2.2-4
		C480.2,311.2,482.1,310.6,484,311.4"/>
	<path class="st2" d="M496,307.9c1.9,0.8,3,2.6,2.5,4.2c-0.6,1.5-2.5,2.1-4.5,1.3c-2-0.9-3-2.7-2.5-4.2
		C492.2,307.6,494.1,307.1,496,307.9"/>
	<path class="st2" d="M518.6,269.4c1.6,0.8,2.6,2.2,2.4,3.1c-0.3,1-1.8,1.1-3.5,0.3c-1.7-0.8-2.7-2.2-2.4-3.2
		C515.4,268.7,516.9,268.6,518.6,269.4"/>
	<path class="st2" d="M480.4,257.8c1.5,0.6,2.3,1.6,1.9,2.4c-0.5,0.8-2.1,1-3.6,0.4c-1.6-0.6-2.4-1.6-1.9-2.5
		C477.3,257.5,478.9,257.3,480.4,257.8"/>
	<path class="st2" d="M488.2,260.8c1.5,0.6,2.4,1.8,2,2.6c-0.5,0.8-2,1-3.6,0.4c-1.6-0.7-2.4-1.8-2-2.6
		C485,260.4,486.6,260.2,488.2,260.8"/>
	<path class="st2" d="M501.1,271.2c1.7,0.8,2.7,2.1,2.3,3.2c-0.5,1-2.1,1.2-3.8,0.5c-1.7-0.8-2.7-2.2-2.3-3.2
		C497.7,270.7,499.4,270.5,501.1,271.2"/>
	<path class="st2" d="M495.7,263.7c1.6,0.7,2.6,2,2.2,3c-0.5,0.9-2.1,1.1-3.8,0.4c-1.7-0.7-2.7-2-2.2-3
		C492.4,263.2,494,263,495.7,263.7"/>
	<path class="st2" d="M503.2,267c1.7,0.8,2.8,2.2,2.4,3.2c-0.4,1-2.1,1.2-4,0.4c-1.8-0.8-2.8-2.2-2.4-3.3
		C499.7,266.3,501.4,266.2,503.2,267"/>
	<path class="st2" d="M508.5,274.4c1.8,0.9,2.9,2.4,2.5,3.5c-0.4,1.2-2.2,1.4-4.1,0.5c-1.9-0.9-3-2.4-2.5-3.6
		C504.9,273.8,506.6,273.6,508.5,274.4"/>
	<path class="st2" d="M507.2,304.8c1.9,0.9,3,2.6,2.6,4.1c-0.5,1.5-2.3,2-4.3,1.1c-1.9-0.9-3-2.7-2.6-4.2
		C503.5,304.5,505.3,304,507.2,304.8"/>
	<path class="st2" d="M509.1,298.6c2,1,3.2,2.8,2.8,4.4c-0.5,1.5-2.5,2-4.5,1.1c-2.1-1-3.3-2.9-2.8-4.4
		C505.1,298.1,507.1,297.7,509.1,298.6"/>
	<path class="st2" d="M510.9,292.7c2.2,1,3.5,3,3,4.6c-0.5,1.6-2.6,2.1-4.9,1.1c-2.2-1.1-3.6-3.1-3-4.7
		C506.6,292.2,508.7,291.7,510.9,292.7"/>
	<path class="st2" d="M512.6,287.3c2.1,1,3.4,2.9,3,4.4c-0.5,1.5-2.5,1.9-4.7,0.9c-2.2-1-3.5-3-3-4.4
		C508.5,286.6,510.5,286.3,512.6,287.3"/>
	<path class="st2" d="M514.1,282.5c1.8,0.9,3,2.5,2.6,3.7c-0.4,1.2-2.1,1.5-4,0.7c-1.9-0.9-3-2.6-2.6-3.8
		C510.5,281.9,512.3,281.6,514.1,282.5"/>
	<path class="st2" d="M515.8,277.7c2,1,3.2,2.7,2.9,4c-0.4,1.3-2.3,1.6-4.3,0.6c-2-1-3.3-2.7-2.9-4C512,277,513.8,276.8,515.8,277.7
		"/>
	<path class="st2" d="M517.3,273.3c1.9,1,3.1,2.6,2.8,3.8c-0.4,1.2-2.2,1.4-4.2,0.5c-2-1-3.2-2.6-2.8-3.9
		C513.6,272.6,515.4,272.4,517.3,273.3"/>
	<path class="st2" d="M532.7,272.3c1.3,0.7,2.1,1.8,2,2.6c-0.2,0.8-1.3,0.9-2.6,0.2c-1.3-0.7-2.2-1.8-2-2.6
		C530.3,271.7,531.4,271.6,532.7,272.3"/>
	<path class="st2" d="M533.7,268.8c1.2,0.6,2,1.6,1.8,2.3c-0.2,0.7-1.2,0.8-2.4,0.1c-1.2-0.6-2-1.6-1.8-2.3
		C531.5,268.2,532.5,268.2,533.7,268.8"/>
	<path class="st2" d="M534.7,265.5c1,0.5,1.7,1.4,1.6,2c-0.1,0.6-1,0.6-2.1,0.1c-1-0.5-1.7-1.4-1.6-2
		C532.8,265,533.7,265,534.7,265.5"/>
	<path class="st2" d="M535.6,262.3c0.9,0.5,1.6,1.2,1.5,1.8c-0.1,0.6-0.9,0.5-1.8,0c-0.9-0.5-1.6-1.2-1.5-1.8
		C533.9,261.8,534.7,261.8,535.6,262.3"/>
	<path class="st2" d="M536.5,259.4c0.8,0.5,1.4,1.1,1.4,1.6c-0.1,0.5-0.8,0.4-1.7,0c-0.9-0.5-1.5-1.1-1.4-1.6
		C534.9,258.9,535.6,259,536.5,259.4"/>
	<path class="st2" d="M537.3,256.7c0.8,0.4,1.3,1,1.2,1.4c-0.1,0.4-0.7,0.4-1.5,0c-0.8-0.4-1.3-1-1.2-1.4
		C535.9,256.2,536.5,256.3,537.3,256.7"/>
	<path class="st2" d="M538,254.4c0.7,0.4,1.2,0.9,1.1,1.3c-0.1,0.4-0.7,0.3-1.4-0.1c-0.7-0.4-1.2-0.9-1.1-1.3
		C536.7,253.9,537.3,254,538,254.4"/>
	<path class="st2" d="M538.7,252.1c0.6,0.3,1,0.8,1,1.1c-0.1,0.3-0.6,0.3-1.2-0.1c-0.6-0.3-1.1-0.8-1-1.1
		C537.6,251.6,538.1,251.7,538.7,252.1"/>
	<path class="st2" d="M522.6,317.1c-1.4-0.7-2.2-2-2-3.2c0.3-1.1,1.5-1.5,2.9-0.8c1.3,0.7,2.2,2,2,3.1
		C525.3,317.4,524,317.8,522.6,317.1"/>
	<path class="st2" d="M521.2,324.4c-1.3-0.6-2.1-2-1.9-3.1c0.3-1.1,1.5-1.5,2.8-0.9c1.3,0.6,2.1,2,1.9,3.1
		C523.7,324.6,522.5,325,521.2,324.4"/>
	<path class="st2" d="M519.8,332c-1.3-0.6-2.1-2-1.8-3.2c0.3-1.2,1.5-1.6,2.8-1c1.3,0.6,2,1.9,1.8,3.1
		C522.3,332.2,521.1,332.6,519.8,332"/>
	<path class="st2" d="M518.5,340.4c-1.2-0.6-1.9-1.9-1.7-3c0.3-1.1,1.4-1.6,2.7-1c1.2,0.6,1.9,1.8,1.7,3
		C520.8,340.4,519.7,340.9,518.5,340.4"/>
	<path class="st2" d="M516.8,349.4c-1.1-0.5-1.8-1.8-1.5-2.9c0.3-1.1,1.4-1.6,2.5-1.1c1.1,0.5,1.8,1.8,1.5,2.9
		C519,349.4,518,349.9,516.8,349.4"/>
	<path class="st2" d="M515,359.7c-1.1-0.5-1.7-1.7-1.4-2.8c0.3-1.1,1.3-1.6,2.4-1.1c1.1,0.5,1.6,1.7,1.4,2.8
		C517.1,359.6,516.1,360.1,515,359.7"/>
	<path class="st2" d="M510.3,270.3c1.7,0.8,2.7,2.2,2.4,3.2c-0.4,1-2,1.2-3.7,0.4c-1.7-0.8-2.7-2.2-2.4-3.3
		C507,269.7,508.6,269.5,510.3,270.3"/>
	<path class="st2" d="M506.5,279.3c1.5,0.7,2.4,2,2.1,3c-0.4,1-1.8,1.2-3.4,0.5c-1.6-0.7-2.5-2-2.1-3
		C503.5,278.9,505,278.7,506.5,279.3"/>
	<path class="st2" d="M504.8,284.1c1.7,0.8,2.8,2.3,2.4,3.5c-0.4,1.2-2.1,1.5-3.9,0.7c-1.8-0.8-2.8-2.4-2.4-3.5
		C501.3,283.6,503,283.4,504.8,284.1"/>
	<path class="st2" d="M498.4,301.3c1.7,0.8,2.7,2.3,2.3,3.7c-0.5,1.3-2.2,1.8-4,1c-1.8-0.8-2.7-2.4-2.3-3.7
		C494.9,300.9,496.6,300.5,498.4,301.3"/>
	<path class="st2" d="M482.9,253.7c1.6,0.7,2.5,1.8,2,2.6c-0.5,0.8-2.2,0.9-3.9,0.3c-1.7-0.7-2.5-1.8-2-2.7
		C479.6,253.2,481.3,253.1,482.9,253.7"/>
	<path class="st2" d="M480.8,319.5c1.7,0.7,2.6,2.3,2,3.8c-0.6,1.4-2.4,2.1-4.2,1.4c-1.7-0.7-2.6-2.4-2-3.8
		C477.3,319.3,479.1,318.8,480.8,319.5"/>
	<path class="st2" d="M468.8,324.3c1.7,0.7,2.5,2.3,1.9,3.8c-0.7,1.5-2.6,2.1-4.4,1.5c-1.8-0.7-2.6-2.4-1.9-3.8
		C465.1,324.2,467,323.6,468.8,324.3"/>
	<path class="st2" d="M493.3,315.4c1.8,0.8,2.7,2.5,2.2,4c-0.6,1.5-2.4,2.1-4.2,1.3c-1.8-0.8-2.8-2.6-2.2-4.1
		C489.7,315.2,491.5,314.6,493.3,315.4"/>
	<path class="st2" d="M504.9,312.1c1.7,0.8,2.7,2.4,2.3,3.8c-0.5,1.4-2.1,1.9-3.8,1.2c-1.7-0.8-2.7-2.5-2.3-3.9
		C501.5,311.8,503.2,311.3,504.9,312.1"/>
	<path class="st2" d="M515.6,308.8c1.8,0.8,2.8,2.6,2.5,4c-0.4,1.5-2.1,1.9-3.9,1.1c-1.8-0.9-2.9-2.6-2.5-4.1
		C512.1,308.4,513.8,308,515.6,308.8"/>
	<path class="st2" d="M500.6,295.2c1.6,0.7,2.5,2.2,2.1,3.4c-0.4,1.2-2,1.5-3.7,0.8c-1.6-0.7-2.6-2.2-2.1-3.4
		C497.4,294.9,498.9,294.5,500.6,295.2"/>
	<path class="st2" d="M519.8,265.7c1.4,0.7,2.3,1.9,2.1,2.7c-0.3,0.8-1.6,0.9-3,0.2c-1.5-0.7-2.4-1.9-2.1-2.8
		C517,265,518.3,265,519.8,265.7"/>
	<path class="st2" d="M490.5,257.2c1.3,0.6,2,1.5,1.6,2.2c-0.4,0.7-1.7,0.8-3,0.2c-1.3-0.6-2-1.5-1.6-2.2
		C487.9,256.8,489.2,256.7,490.5,257.2"/>
	<path class="st2" d="M496.9,281.1c1.4,0.6,2.2,1.8,1.8,2.7c-0.4,0.9-1.8,1.1-3.2,0.5c-1.4-0.6-2.2-1.8-1.8-2.7
		C494.1,280.7,495.5,280.5,496.9,281.1"/>
	<path class="st2" d="M486.9,304.2c1.8,0.8,2.7,2.3,2.2,3.7c-0.6,1.4-2.4,1.8-4.2,1.1c-1.8-0.8-2.7-2.4-2.2-3.7
		C483.3,304,485.1,303.5,486.9,304.2"/>
	<path class="st2" d="M502.6,289.9c1.6,0.7,2.5,2.1,2.1,3.2c-0.4,1.1-1.9,1.4-3.5,0.7c-1.6-0.7-2.5-2.1-2.1-3.2
		C499.5,289.5,501,289.2,502.6,289.9"/>
	<path class="st2" d="M486.3,282.8c1.6,0.7,2.5,2,2,3.1c-0.5,1.1-2.2,1.4-3.9,0.7c-1.7-0.7-2.5-2-2-3.1
		C483,282.4,484.7,282.1,486.3,282.8"/>
	<path class="st2" d="M458.3,329.4c1.2,0.5,1.7,1.6,1.2,2.7c-0.6,1.1-1.9,1.6-3.2,1.1c-1.2-0.5-1.8-1.6-1.2-2.7
		C455.7,329.5,457.1,329,458.3,329.4"/>
	<path class="st2" d="M493.4,268.1c1.5,0.7,2.3,1.8,1.9,2.7c-0.4,0.9-1.9,1.1-3.4,0.4c-1.5-0.7-2.3-1.8-1.9-2.7
		C490.4,267.7,491.9,267.5,493.4,268.1"/>
	<path class="st2" d="M526.3,269.1c1.3,0.7,2.1,1.7,1.9,2.5c-0.2,0.7-1.3,0.8-2.6,0.2c-1.3-0.7-2.1-1.7-1.9-2.5
		C523.9,268.6,525.1,268.5,526.3,269.1"/>
	<path class="st2" d="M507.9,256.6c1,0.4,1.6,1.1,1.5,1.6c-0.1,0.5-1,0.6-2,0.3c-1-0.4-1.6-1.1-1.5-1.6
		C506.1,256.3,506.9,256.2,507.9,256.6"/>
	<path class="st2" d="M497.5,260.2c1.1,0.5,1.8,1.4,1.5,2c-0.3,0.6-1.4,0.7-2.6,0.2c-1.2-0.5-1.8-1.4-1.5-2
		C495.2,259.8,496.4,259.7,497.5,260.2"/>
	<path class="st2" d="M494.4,286.6c1.4,0.6,2.2,1.8,1.9,2.8c-0.4,1-1.8,1.2-3.3,0.6c-1.5-0.6-2.3-1.9-1.9-2.9
		C491.6,286.2,493,286,494.4,286.6"/>
	<path class="st2" d="M488.8,278c1.3,0.5,2,1.6,1.6,2.4c-0.4,0.8-1.7,1-3,0.5c-1.3-0.5-2-1.6-1.6-2.4
		C486.2,277.7,487.5,277.5,488.8,278"/>
	<path class="st2" d="M477.7,279.8c1.5,0.6,2.3,1.8,1.8,2.7c-0.5,0.9-2.1,1.2-3.6,0.7c-1.5-0.6-2.3-1.8-1.8-2.7
		C474.6,279.5,476.2,279.3,477.7,279.8"/>
	<path class="st2" d="M472.5,255.4c1.2,0.4,1.8,1.2,1.4,1.8c-0.4,0.6-1.7,0.8-2.9,0.4c-1.2-0.4-1.9-1.2-1.4-1.8
		C470.1,255.2,471.3,255,472.5,255.4"/>
	<path class="st2" d="M509.5,253.3c1,0.4,1.7,1.1,1.6,1.7c-0.2,0.5-1.1,0.6-2.1,0.2c-1.1-0.4-1.8-1.2-1.6-1.7
		C507.5,252.9,508.5,252.9,509.5,253.3"/>
	<path class="st2" d="M513.2,262.6c1.3,0.6,2.1,1.7,1.8,2.4c-0.3,0.7-1.5,0.8-2.8,0.2c-1.3-0.6-2.1-1.7-1.8-2.4
		C510.7,262.1,511.9,262,513.2,262.6"/>
	<path class="st2" d="M514.7,259.1c1.1,0.6,1.8,1.5,1.7,2.1c-0.2,0.6-1.2,0.7-2.4,0.1c-1.1-0.6-1.9-1.5-1.7-2.1
		C512.5,258.6,513.6,258.5,514.7,259.1"/>
	<path class="st2" d="M498.8,276.5c1.2,0.5,1.9,1.5,1.6,2.3c-0.3,0.8-1.5,0.9-2.8,0.4c-1.2-0.6-1.9-1.5-1.6-2.3
		C496.4,276.2,497.6,276,498.8,276.5"/>
	<path class="st2" d="M504.7,263.6c1,0.5,1.6,1.2,1.4,1.8c-0.3,0.6-1.2,0.6-2.2,0.2c-1-0.5-1.6-1.3-1.4-1.8
		C502.8,263.2,503.7,263.1,504.7,263.6"/>
	<path class="st2" d="M489.5,298.2c1.2,0.5,1.9,1.6,1.6,2.5c-0.4,0.9-1.7,1.2-2.9,0.7c-1.3-0.5-1.9-1.6-1.5-2.6
		C487,298,488.2,297.7,489.5,298.2"/>
	<path class="st2" d="M511.5,266.9c0.9,0.4,1.4,1.1,1.3,1.7c-0.2,0.5-1,0.6-1.9,0.2c-0.9-0.4-1.4-1.2-1.3-1.7
		C509.8,266.5,510.6,266.5,511.5,266.9"/>
	<path class="st2" d="M520.7,262.3c1,0.5,1.6,1.3,1.5,1.9c-0.2,0.6-1,0.6-2.1,0.1c-1-0.5-1.7-1.4-1.5-1.9
		C518.8,261.9,519.7,261.8,520.7,262.3"/>
	<path class="st2" d="M485.5,265.2c1.2,0.5,1.9,1.4,1.6,2.1c-0.4,0.7-1.6,0.9-2.9,0.4c-1.3-0.5-1.9-1.4-1.6-2.1
		C482.9,264.9,484.2,264.8,485.5,265.2"/>
	<path class="st2" d="M458.5,245.7c1,0.3,1.5,0.9,1.1,1.4c-0.4,0.4-1.5,0.6-2.5,0.3c-1-0.3-1.5-0.9-1.1-1.4
		C456.3,245.5,457.4,245.4,458.5,245.7"/>
	<path class="st2" d="M469,276.8c1.4,0.5,2.1,1.5,1.6,2.4c-0.5,0.8-2,1.1-3.5,0.7c-1.4-0.5-2.2-1.5-1.6-2.4
		C466,276.6,467.5,276.3,469,276.8"/>
	<path class="st2" d="M455.3,337.3c1.1,0.4,1.6,1.5,1,2.6c-0.6,1-1.9,1.5-3,1.1c-1.1-0.4-1.6-1.5-1-2.6
		C452.9,337.4,454.2,336.9,455.3,337.3"/>
	<path class="st2" d="M446.5,341.9c1,0.3,1.4,1.3,0.9,2.2c-0.5,0.9-1.7,1.3-2.7,1c-1-0.3-1.4-1.3-0.9-2.2
		C444.3,342,445.5,341.6,446.5,341.9"/>
	<path class="st2" d="M477.7,327.3c1.3,0.5,1.9,1.8,1.5,2.9c-0.5,1.1-1.9,1.6-3.2,1.1c-1.3-0.5-1.9-1.8-1.4-3
		C475,327.2,476.4,326.8,477.7,327.3"/>
	<path class="st2" d="M465.6,332.4c1.3,0.5,1.9,1.8,1.5,2.9c-0.5,1.1-1.9,1.6-3.2,1.1c-1.3-0.5-1.9-1.8-1.4-3
		C462.9,332.4,464.3,331.9,465.6,332.4"/>
	<path class="st2" d="M480.4,275.1c0.9,0.4,1.5,1.1,1.2,1.7c-0.3,0.6-1.3,0.7-2.3,0.4c-1-0.4-1.5-1.1-1.2-1.7
		C478.5,274.9,479.5,274.7,480.4,275.1"/>
	<path class="st2" d="M505.2,248.3c0.8,0.3,1.3,0.8,1.2,1.3c-0.2,0.4-0.9,0.4-1.7,0.1c-0.8-0.3-1.4-0.9-1.2-1.3
		C503.7,248,504.4,248,505.2,248.3"/>
	<path class="st2" d="M490.4,323.3c1.1,0.5,1.7,1.5,1.3,2.5c-0.4,0.9-1.5,1.3-2.6,0.9c-1.1-0.5-1.7-1.6-1.3-2.5
		C488.2,323.2,489.3,322.8,490.4,323.3"/>
	<path class="st2" d="M502.3,319.3c1,0.5,1.6,1.5,1.3,2.4c-0.3,0.9-1.3,1.2-2.4,0.8c-1-0.5-1.6-1.5-1.3-2.4
		C500.2,319.1,501.2,318.8,502.3,319.3"/>
	<path class="st2" d="M513.3,316.8c1,0.5,1.5,1.4,1.3,2.3c-0.2,0.8-1.2,1.1-2.2,0.7c-1-0.5-1.6-1.5-1.3-2.3
		C511.4,316.6,512.3,316.4,513.3,316.8"/>
	<path class="st2" d="M459.5,274.3c0.9,0.3,1.4,0.9,1.1,1.5c-0.4,0.5-1.4,0.7-2.4,0.5c-1-0.3-1.4-0.9-1.1-1.5
		C457.5,274.2,458.5,274,459.5,274.3"/>
	<path class="st2" d="M465.7,281.2c1.1,0.4,1.7,1.2,1.3,2c-0.4,0.7-1.6,1-2.8,0.6c-1.2-0.4-1.7-1.2-1.3-2
		C463.4,281.1,464.6,280.8,465.7,281.2"/>
	<path class="st2" d="M474.7,285.2c1,0.4,1.5,1.2,1.2,1.8c-0.4,0.7-1.4,0.9-2.4,0.5c-1-0.4-1.5-1.2-1.2-1.8
		C472.6,285,473.7,284.8,474.7,285.2"/>
	<path class="st2" d="M483.5,288.7c0.9,0.4,1.4,1.1,1.1,1.7c-0.3,0.6-1.2,0.8-2.1,0.4c-0.9-0.4-1.4-1.1-1.1-1.7
		C481.7,288.6,482.6,288.4,483.5,288.7"/>
	<path class="st2" d="M492,292.3c0.9,0.4,1.3,1.1,1.1,1.7c-0.3,0.6-1.1,0.8-2,0.4c-0.9-0.4-1.4-1.1-1.1-1.8
		C490.2,292.1,491.1,291.9,492,292.3"/>
	<path class="st2" d="M511,250.6c0.8,0.3,1.3,0.8,1.2,1.3c-0.1,0.4-0.8,0.5-1.6,0.1c-0.8-0.3-1.3-0.8-1.2-1.3
		C509.5,250.3,510.2,250.3,511,250.6"/>
	<path class="st2" d="M506.8,245.7c0.7,0.3,1.2,0.8,1.1,1.1c-0.1,0.4-0.7,0.4-1.4,0.1c-0.7-0.3-1.2-0.8-1.1-1.2
		C505.5,245.5,506.1,245.4,506.8,245.7"/>
	<path class="st2" d="M502.5,241.6c0.6,0.3,1.1,0.7,1,1c-0.1,0.4-0.7,0.4-1.3,0.1c-0.6-0.3-1.1-0.7-1-1
		C501.3,241.3,501.8,241.3,502.5,241.6"/>
	<path class="st2" d="M515.8,256.2c0.8,0.4,1.4,1.1,1.2,1.6c-0.2,0.5-0.9,0.5-1.8,0c-0.8-0.4-1.4-1.1-1.2-1.6
		C514.2,255.8,515,255.8,515.8,256.2"/>
	<path class="st2" d="M456.4,278.5c1,0.3,1.4,1,1.1,1.6c-0.4,0.6-1.4,0.8-2.4,0.5c-1-0.3-1.5-1-1.1-1.6
		C454.4,278.5,455.4,278.2,456.4,278.5"/>
	<path class="st2" d="M447.7,276.1c0.9,0.2,1.3,0.8,1,1.4c-0.4,0.5-1.4,0.7-2.3,0.5c-0.9-0.3-1.4-0.8-1-1.4
		C445.8,276.1,446.8,275.9,447.7,276.1"/>
	<path class="st2" d="M521.6,272.9c-0.3,1,0.6,2.3,2.1,3.3c-1.8-0.6-3.2-0.3-3.6,0.8c-0.3,1,0.4,2.3,1.7,3.4c-1.5-0.3-2.7,0.1-3,1.2
		c-0.3,1.2,0.6,2.8,2.3,4c-1.9-0.6-3.4-0.2-3.8,1.1c-0.3,1.1,0.3,2.4,1.5,3.6c-1.5-0.2-2.7,0.3-3,1.5c-0.4,1.3,0.4,2.8,1.9,4
		c-1.7-0.3-3.1,0.3-3.5,1.6c-0.5,1.8,1,4.1,3.4,5.2c2,0.9,3.8,0.7,4.7-0.3c0.2,1.6,1.6,3.3,3.5,4.2c1.7,0.8,3.2,0.7,4.1,0
		c0.5,1.4,1.7,2.8,3.4,3.6c1.6,0.8,3.1,0.8,4,0c0.5,1.4,1.8,2.8,3.4,3.6c1.7,0.8,3.1,0.7,4-0.1c0.5,1.5,1.8,3,3.4,3.8
		c2.3,1.1,4.2,0.6,4.4-1.3c0.1-1.4-0.8-3.1-2.2-4.4c1.5,0.3,2.6-0.3,2.7-1.7c0.1-1.2-0.7-2.7-1.9-3.8c1.3,0.1,2.2-0.4,2.3-1.6
		c0.1-1.4-1-3.1-2.6-4.3c1.7,0.6,3,0.1,3.1-1.2c0.1-1.1-0.7-2.5-2-3.6c1.3,0.3,2.3-0.2,2.4-1.2c0.1-1.2-1-2.8-2.6-3.9
		c1.5,0.5,2.6,0.2,2.7-0.8c0.1-1.2-1.2-2.9-3-3.8c-1.5-0.8-2.8-0.8-3.3,0c-0.2-1.1-1.4-2.4-2.9-3.3c-1.5-0.8-2.7-0.8-3.3-0.1
		c-0.3-1.2-1.5-2.6-3.1-3.5c-1.7-0.9-3.2-0.8-3.8-0.1c-0.2-1.1-1.3-2.3-2.8-3.1c-1.8-0.9-3.4-0.9-3.7,0.3c0.3-1.2-1-2.7-2.9-3.6
		C523.7,271.7,522,271.8,521.6,272.9 M545.3,307.6c0.9,0.5,1.5,1.4,1.4,2.1c-0.1,0.7-0.9,0.9-1.8,0.5c-0.9-0.5-1.5-1.4-1.4-2.1
		C543.7,307.3,544.4,307.2,545.3,307.6 M538.3,304.2c0.8,0.4,1.3,1.2,1.3,1.8c-0.1,0.6-0.8,0.8-1.6,0.4c-0.8-0.4-1.4-1.2-1.3-1.9
		C536.8,303.9,537.5,303.8,538.3,304.2 M531.1,300.6c0.8,0.4,1.4,1.2,1.2,1.8c-0.1,0.6-0.9,0.8-1.7,0.4c-0.8-0.4-1.4-1.2-1.2-1.8
		C529.6,300.4,530.3,300.2,531.1,300.6 M524.7,298.7c-0.2,0.7-1,0.9-2,0.4c-0.9-0.5-1.5-1.4-1.4-2c0.2-0.7,1-0.8,2-0.4
		C524.3,297.1,524.8,298,524.7,298.7 M546.2,302.6c0.8,0.4,1.3,1.2,1.3,1.8c-0.1,0.6-0.7,0.8-1.5,0.4c-0.8-0.4-1.3-1.2-1.3-1.8
		C544.8,302.3,545.5,302.2,546.2,302.6 M524.6,291.7c0.8,0.4,1.3,1.2,1.2,1.7c-0.1,0.6-0.9,0.7-1.7,0.3c-0.8-0.4-1.3-1.2-1.2-1.7
		C523,291.5,523.7,291.4,524.6,291.7 M546.9,297.4c0.8,0.4,1.3,1.1,1.2,1.7c-0.1,0.6-0.7,0.7-1.5,0.3c-0.8-0.4-1.3-1.2-1.2-1.7
		C545.5,297.1,546.1,297,546.9,297.4 M525.8,286.7c0.8,0.4,1.3,1.1,1.2,1.7c-0.1,0.5-0.9,0.7-1.7,0.3c-0.8-0.4-1.3-1.1-1.2-1.7
		C524.3,286.5,525,286.3,525.8,286.7 M547.4,292.5c0.7,0.4,1.3,1.1,1.2,1.6c-0.1,0.6-0.7,0.6-1.4,0.3c-0.8-0.4-1.3-1.1-1.2-1.6
		C546.1,292.2,546.7,292.1,547.4,292.5 M527,282c0.8,0.4,1.3,1,1.2,1.6c-0.1,0.5-0.8,0.6-1.6,0.2c-0.8-0.4-1.3-1.1-1.2-1.6
		C525.5,281.7,526.2,281.7,527,282 M547.7,287.4c0.8,0.4,1.4,1.2,1.3,1.7c-0.1,0.5-0.7,0.6-1.5,0.2c-0.8-0.4-1.4-1.2-1.3-1.7
		C546.3,287.1,546.9,287,547.7,287.4 M541.4,284.2c0.7,0.4,1.2,1,1.2,1.5c-0.1,0.5-0.7,0.6-1.4,0.2c-0.7-0.4-1.2-1-1.2-1.5
		C540.1,283.9,540.7,283.9,541.4,284.2 M535,281c0.7,0.4,1.2,1,1.1,1.5c-0.1,0.5-0.7,0.5-1.5,0.2c-0.7-0.4-1.2-1-1.1-1.5
		C533.7,280.6,534.3,280.6,535,281 M528.1,277.3c0.8,0.4,1.4,1.1,1.3,1.7c-0.1,0.5-0.9,0.6-1.7,0.2c-0.8-0.4-1.4-1.2-1.3-1.7
		C526.5,277,527.3,276.9,528.1,277.3"/>
</g>
</svg>
